<!DOCTYPE svg PUBLIC "-//W3C//DTD SVG 1.1//EN" "http://www.w3.org/Graphics/SVG/1.1/DTD/svg11.dtd">
<!-- Uploaded to: SVG Repo, www.svgrepo.com, Transformed by: SVG Repo Mixer Tools -->
<svg fill="#c07d53" width="800px" height="800px" viewBox="0 0 100 100" xmlns="http://www.w3.org/2000/svg">
<g id="SVGRepo_bgCarrier" stroke-width="0"/>
<g id="SVGRepo_tracerCarrier" stroke-linecap="round" stroke-linejoin="round"/>
<g id="SVGRepo_iconCarrier"> <title/> <g data-name="Calque 2" id="Calque_2"> <path d="M85.08,47.56H74.25a1.5,1.5,0,0,0-1.5,1.5v4.46H67.07l-5.83-12h8.92a1.5,1.5,0,0,0,1.5-1.5v-6a1.5,1.5,0,0,0-1.5-1.5H30.54a1.5,1.5,0,0,0-1.5,1.5v6a1.5,1.5,0,0,0,1.5,1.5h7.7l-5.2,12H28V49.06a1.5,1.5,0,0,0-1.5-1.5H15.62a1.5,1.5,0,0,0-1.5,1.5v6a1.5,1.5,0,0,0,1.5,1.5H31.74l-4.32,9.92a1.51,1.51,0,0,0,.78,2,1.61,1.61,0,0,0,.6.12,1.49,1.49,0,0,0,1.37-.9L35,56.52H65.2l5.35,11a1.5,1.5,0,0,0,1.35.84,1.55,1.55,0,0,0,.66-.15,1.51,1.51,0,0,0,.69-2l-4.71-9.64H85.08a1.5,1.5,0,0,0,1.5-1.5v-6A1.5,1.5,0,0,0,85.08,47.56Zm-1.5,6H75.75v-3h7.83ZM32,35.61H68.66v3H32Zm9.44,6s0,0,0-.08H58a1.27,1.27,0,0,0,.12.36l5.66,11.6H36.31ZM17.12,53.52v-3H25v3H17.12Z"/> </g> </g>
</svg>